<?xml version="1.0" encoding="utf-8"?>
<!-- Generator: Adobe Illustrator 24.1.0, SVG Export Plug-In . SVG Version: 6.00 Build 0)  -->
<svg version="1.1" id="Layer_1" xmlns="http://www.w3.org/2000/svg" xmlns:xlink="http://www.w3.org/1999/xlink" x="0px" y="0px"
	 viewBox="0 0 500 500" style="enable-background:new 0 0 500 500;" xml:space="preserve">
<g>
	<g>
		<path d="M130.1,240.8c3.8-1,7.7-1.9,11.5-2.6c1.8-0.4,3.7-0.7,5.6-1c0.9-0.2,1.9-0.3,2.8-0.4c0.5-0.1,0.9-0.1,1.4-0.2
			c0.3,0,0.6-0.1,0.9-0.1c-0.4,0.1-0.4,0,0.2,0c7.8-1,15.6-1.6,23.4-1.8c15.8-0.5,31.6,0.3,47.4,1.6c31.7,2.5,63.4,6.5,95.3,5.4
			c18.5-0.6,36.9-2.7,55-6.1c2.3-0.4,3.8-3.4,3.1-5.5c-0.8-2.5-3.1-3.6-5.5-3.1c-8,1.5-15.8,2.7-23.4,3.6c-8.1,0.9-16.2,1.6-24.3,2
			c-16.1,0.8-32.1,0.3-48.1-0.8c-31.5-2.2-63-6.6-94.7-6.1c-17.8,0.3-35.7,2.1-52.9,6.7c-2.3,0.6-3.9,3.2-3.1,5.5
			C125.4,240,127.7,241.5,130.1,240.8L130.1,240.8z"/>
	</g>
</g>
</svg>
