<?xml version="1.0" encoding="utf-8"?>
<!-- Generator: Adobe Illustrator 24.1.0, SVG Export Plug-In . SVG Version: 6.00 Build 0)  -->
<svg version="1.1" id="Layer_1" xmlns="http://www.w3.org/2000/svg" xmlns:xlink="http://www.w3.org/1999/xlink" x="0px" y="0px"
	 viewBox="0 0 250 50" style="enable-background:new 0 0 250 50;" xml:space="preserve">
<g>
	<g>
		<path d="M8.2,21.7c22.5-1,45.1-2,67.7-2.6c22.5-0.6,44.9-0.9,67.4-0.4c12.7,0.3,25.4,0.8,38,1.6c0-1,0-2,0-3
			c-18.9,1.9-37.9,3.1-56.9,3.8c-5.4,0.2-10.9,0.3-16.3,0.4c-1.9,0-1.9,2.9,0,3c17.3,1.2,34.5,2.4,51.8,3.7s34.5,2.4,51.8,3.7
			c9.8,0.7,19.6,1.4,29.4,2.1c0-1,0-2,0-3c-1.1,0-2.1-0.1-3.2-0.1c-1.9-0.1-1.9,2.9,0,3c1.1,0,2.1,0.1,3.2,0.1c1.9,0.1,1.9-2.9,0-3
			c-17.3-1.2-34.5-2.4-51.8-3.7s-34.5-2.4-51.8-3.7c-9.8-0.7-19.6-1.4-29.4-2.1c0,1,0,2,0,3c19-0.3,38-1.3,56.9-2.8
			c5.4-0.4,10.9-0.9,16.3-1.5c1.9-0.2,2-2.9,0-3c-22.5-1.5-45.1-2-67.6-1.9c-22.5,0.1-45,0.7-67.4,1.6c-12.7,0.5-25.4,1.1-38.1,1.6
			C6.3,18.7,6.3,21.7,8.2,21.7L8.2,21.7z"/>
	</g>
</g>
</svg>
